<mxfile host="app.diagrams.net" agent="Mozilla/5.0 (Windows NT 10.0; Win64; x64) AppleWebKit/537.36 (KHTML, like Gecko) Chrome/135.0.0.0 Safari/537.36" version="26.2.10">
  <diagram name="PÃ¡gina-1" id="K-Wf3l---sIhuRTjcOsU">
    <mxGraphModel dx="542" dy="1696" grid="1" gridSize="10" guides="1" tooltips="1" connect="1" arrows="1" fold="1" page="1" pageScale="1" pageWidth="827" pageHeight="1169" math="0" shadow="0">
      <root>
        <mxCell id="0" />
        <mxCell id="1" parent="0" />
        <mxCell id="J9zvmd2ojquX9XpZ-s1I-1" value="USERS&lt;div&gt;id, name, email, password&lt;/div&gt;" style="rounded=1;whiteSpace=wrap;html=1;" vertex="1" parent="1">
          <mxGeometry x="50" y="40" width="120" height="60" as="geometry" />
        </mxCell>
        <mxCell id="J9zvmd2ojquX9XpZ-s1I-2" value="REPTES&lt;br&gt;id, user_id, nombre, limit_calories_diari" style="rounded=1;whiteSpace=wrap;html=1;" vertex="1" parent="1">
          <mxGeometry x="40" y="180" width="120" height="60" as="geometry" />
        </mxCell>
        <mxCell id="J9zvmd2ojquX9XpZ-s1I-7" style="edgeStyle=orthogonalEdgeStyle;rounded=0;orthogonalLoop=1;jettySize=auto;html=1;entryX=1;entryY=0.5;entryDx=0;entryDy=0;" edge="1" parent="1" source="J9zvmd2ojquX9XpZ-s1I-3" target="J9zvmd2ojquX9XpZ-s1I-2">
          <mxGeometry relative="1" as="geometry" />
        </mxCell>
        <mxCell id="J9zvmd2ojquX9XpZ-s1I-8" style="edgeStyle=orthogonalEdgeStyle;rounded=0;orthogonalLoop=1;jettySize=auto;html=1;exitX=0;exitY=0;exitDx=0;exitDy=0;entryX=1;entryY=1;entryDx=0;entryDy=0;" edge="1" parent="1" source="J9zvmd2ojquX9XpZ-s1I-3" target="J9zvmd2ojquX9XpZ-s1I-1">
          <mxGeometry relative="1" as="geometry" />
        </mxCell>
        <mxCell id="J9zvmd2ojquX9XpZ-s1I-3" value="CONSUMS_DIARI&lt;div&gt;id, user_id, repte_id, data, calories&lt;/div&gt;" style="rounded=1;whiteSpace=wrap;html=1;" vertex="1" parent="1">
          <mxGeometry x="240" y="190" width="120" height="60" as="geometry" />
        </mxCell>
        <mxCell id="J9zvmd2ojquX9XpZ-s1I-10" style="edgeStyle=orthogonalEdgeStyle;rounded=0;orthogonalLoop=1;jettySize=auto;html=1;entryX=1;entryY=0.5;entryDx=0;entryDy=0;" edge="1" parent="1" source="J9zvmd2ojquX9XpZ-s1I-4" target="J9zvmd2ojquX9XpZ-s1I-5">
          <mxGeometry relative="1" as="geometry" />
        </mxCell>
        <mxCell id="J9zvmd2ojquX9XpZ-s1I-4" value="LOGROS&lt;br&gt;id, nombre, descripcio, icone" style="rounded=1;whiteSpace=wrap;html=1;" vertex="1" parent="1">
          <mxGeometry x="414" y="50" width="120" height="60" as="geometry" />
        </mxCell>
        <mxCell id="J9zvmd2ojquX9XpZ-s1I-9" style="edgeStyle=orthogonalEdgeStyle;rounded=0;orthogonalLoop=1;jettySize=auto;html=1;entryX=1;entryY=0.5;entryDx=0;entryDy=0;" edge="1" parent="1" source="J9zvmd2ojquX9XpZ-s1I-5" target="J9zvmd2ojquX9XpZ-s1I-1">
          <mxGeometry relative="1" as="geometry" />
        </mxCell>
        <mxCell id="J9zvmd2ojquX9XpZ-s1I-5" value="LOGROS_USER&lt;div&gt;id, user_id, logro_id&lt;/div&gt;" style="rounded=1;whiteSpace=wrap;html=1;" vertex="1" parent="1">
          <mxGeometry x="240" y="50" width="120" height="60" as="geometry" />
        </mxCell>
        <mxCell id="J9zvmd2ojquX9XpZ-s1I-16" style="edgeStyle=orthogonalEdgeStyle;rounded=0;orthogonalLoop=1;jettySize=auto;html=1;entryX=0.5;entryY=0;entryDx=0;entryDy=0;" edge="1" parent="1" source="J9zvmd2ojquX9XpZ-s1I-6" target="J9zvmd2ojquX9XpZ-s1I-1">
          <mxGeometry relative="1" as="geometry" />
        </mxCell>
        <mxCell id="J9zvmd2ojquX9XpZ-s1I-6" value="HISTORICS&lt;br&gt;id, user_id, data, calories" style="rounded=1;whiteSpace=wrap;html=1;" vertex="1" parent="1">
          <mxGeometry x="120" y="-70" width="120" height="60" as="geometry" />
        </mxCell>
        <mxCell id="J9zvmd2ojquX9XpZ-s1I-11" value="N:1" style="text;html=1;align=center;verticalAlign=middle;resizable=0;points=[];autosize=1;strokeColor=none;fillColor=none;" vertex="1" parent="1">
          <mxGeometry x="360" y="48" width="40" height="30" as="geometry" />
        </mxCell>
        <mxCell id="J9zvmd2ojquX9XpZ-s1I-12" value="N:M" style="text;html=1;align=center;verticalAlign=middle;resizable=0;points=[];autosize=1;strokeColor=none;fillColor=none;" vertex="1" parent="1">
          <mxGeometry x="165" y="38" width="50" height="30" as="geometry" />
        </mxCell>
        <mxCell id="J9zvmd2ojquX9XpZ-s1I-13" value="1:N" style="text;html=1;align=center;verticalAlign=middle;resizable=0;points=[];autosize=1;strokeColor=none;fillColor=none;" vertex="1" parent="1">
          <mxGeometry x="130" y="98" width="40" height="30" as="geometry" />
        </mxCell>
        <mxCell id="J9zvmd2ojquX9XpZ-s1I-14" value="1:N" style="text;html=1;align=center;verticalAlign=middle;resizable=0;points=[];autosize=1;strokeColor=none;fillColor=none;" vertex="1" parent="1">
          <mxGeometry x="165" y="178" width="40" height="30" as="geometry" />
        </mxCell>
        <mxCell id="J9zvmd2ojquX9XpZ-s1I-17" value="1:N" style="text;html=1;align=center;verticalAlign=middle;resizable=0;points=[];autosize=1;strokeColor=none;fillColor=none;" vertex="1" parent="1">
          <mxGeometry x="110" y="8" width="40" height="30" as="geometry" />
        </mxCell>
      </root>
    </mxGraphModel>
  </diagram>
</mxfile>
